<?xml version="1.0" encoding="iso-8859-1"?>
<!-- Uploaded to: SVG Repo, www.svgrepo.com, Generator: SVG Repo Mixer Tools -->
<svg version="1.1" id="Layer_1" xmlns="http://www.w3.org/2000/svg" xmlns:xlink="http://www.w3.org/1999/xlink" 
	 viewBox="0 0 512 512" xml:space="preserve">
<g>
	<path style="fill:#15E3A6;" d="M256.003,267.494c9.121-24.725,21.538-41.209,35.824-51.538
		c71.209-51.538,189.451,51.538,189.451,51.538S310.948,415.846,256.003,267.494z"/>
	<path style="fill:#15E3A6;" d="M256.003,267.494c0,0,0,0.11-0.11,0.33c-55.055,147.802-225.165-0.33-225.165-0.33
		s118.242-103.077,189.451-51.538C234.464,226.286,246.882,242.769,256.003,267.494z"/>
	<path style="fill:#15E3A6;" d="M291.387,219.692c-9.231,7.363-20.879,13.846-35.385,19.231
		c-14.505-5.385-26.154-11.868-35.385-19.231c-85.385-67.363,35.385-206.044,35.385-206.044S376.772,152.33,291.387,219.692z"/>
</g>
<g>
	<path style="fill:#0DD398;" d="M291.387,159.253c-9.231,7.363-20.879,13.846-35.385,19.231
		c-14.505-5.385-26.154-11.868-35.385-19.231c-13.188-10.404-21.433-22.516-25.989-35.551c-9.098,34.619-6.402,70.434,25.989,95.99
		c9.231,7.363,20.879,13.846,35.385,19.231c14.505-5.385,26.154-11.868,35.385-19.231c32.392-25.556,35.087-61.371,25.99-95.99
		C312.82,136.736,304.575,148.848,291.387,159.253z"/>
	<path style="fill:#0DD398;" d="M310.948,267.494c9.121-24.725,21.538-41.209,35.824-51.538c6.733-4.873,13.888-8.354,21.321-10.68
		c-26.644-6.432-53.796-5.584-76.266,10.68c-14.286,10.33-26.703,26.813-35.824,51.538c23.612,63.753,68.53,72.652,112.085,62.137
		C344.909,322.396,324.441,303.925,310.948,267.494z"/>
	<path style="fill:#0DD398;" d="M220.179,215.956c-22.47-16.264-49.623-17.112-76.266-10.68c7.434,2.326,14.589,5.808,21.321,10.68
		c14.286,10.33,26.703,26.813,35.824,51.538c0,0,0,0.11-0.11,0.33c-13.491,36.218-33.909,54.592-57.021,61.804
		c43.486,10.5,88.329,1.654,111.966-61.804c0.11-0.22,0.11-0.33,0.11-0.33C246.882,242.769,234.464,226.286,220.179,215.956z"/>
</g>
<path d="M486.693,261.282c-1.238-1.08-30.792-26.678-69.737-46.248c-36.238-18.209-68.622-24.936-95.631-20.138
	c14.432-29.459,11.069-67.768-10.203-112.508C291.352,40.81,263.397,8.492,262.217,7.136L256.003,0l-6.215,7.136
	c-1.18,1.355-29.136,33.675-48.904,75.252c-21.231,44.651-24.625,82.898-10.292,112.334c-21.079-3.781-45.396-0.406-72.709,10.137
	l5.936,15.378c38.175-14.737,68.969-13.933,91.531,2.397c11.377,8.227,20.873,20.521,28.325,36.619h-22.719l-30.553-30.554
	l-11.655,11.656l18.898,18.897h-31.634l-30.553-30.554l-11.655,11.656l18.898,18.897h-35.051v16.484h35.047l-18.898,18.897
	l11.655,11.656l30.553-30.554h31.634l-18.898,18.897l11.655,11.656l30.553-30.554h22.72c-11.929,25.721-28.971,41.549-50.781,47.1
	c-54.573,13.886-125.934-37.156-149.124-55.352c11.482-9.035,34.781-26.144,61.984-39.355l-7.201-14.827
	c-40.627,19.73-71.927,46.835-73.24,47.979l-7.131,6.215l7.134,6.212c3.534,3.077,78.925,67.962,147.868,67.96
	c8.045,0,16.003-0.885,23.748-2.853c25.285-6.426,45.096-23.477,59.079-50.762c13.974,27.258,33.758,44.302,59.008,50.744
	c7.596,1.937,15.601,2.904,24.01,2.904c26.444,0,56.843-9.566,90.72-28.592c32.571-18.292,55.963-38.548,56.943-39.402l7.133-6.211
	L486.693,261.282z M225.012,209.279c-2.589-1.874-5.257-3.582-8-5.129c-51.214-54.411,17.259-150.813,38.992-178.542
	c21.752,27.753,90.278,124.242,38.905,178.632c-2.716,1.523-5.36,3.19-7.911,5.036c-8.544,6.178-16.14,14.14-22.754,23.786v-30.287
	l30.553-30.553l-11.655-11.656l-18.898,18.898v-31.634l30.553-30.553l-11.655-11.656l-18.898,18.898V89.473h-16.484v35.048
	l-18.898-18.898l-11.655,11.656l30.553,30.553v31.634l-18.898-18.898l-11.655,11.656l30.553,30.553v30.287
	C241.148,223.418,233.553,215.456,225.012,209.279z M319.093,322.826c-21.793-5.559-38.829-21.38-50.755-47.091h22.712
	l30.553,30.554l11.655-11.656l-18.898-18.897h31.634l30.553,30.554l11.655-11.656l-18.898-18.897h35.047v-16.484h-35.047
	l18.898-18.897l-11.655-11.656l-30.553,30.554H314.36l18.898-18.897l-11.655-11.656l-30.553,30.554h-22.715
	c7.452-16.096,16.945-28.393,28.324-36.621c55.233-39.973,145.007,24.01,171.572,44.865
	C445.046,285.713,373.738,336.769,319.093,322.826z"/>
<path d="M293.995,437.101c-26.352-34.592-33.069-78.604-34.065-109.434l-16.475,0.532C245.671,396.843,273.803,512,437.32,512
	v-16.483C371.746,495.516,323.524,475.863,293.995,437.101z"/>
<g>
	<rect x="245.014" y="59.253" style="fill:#FFFFFF;" width="21.978" height="16.484"/>
	<rect x="415.343" y="259.253" style="fill:#FFFFFF;" width="21.978" height="16.484"/>
	<rect x="74.684" y="259.253" style="fill:#FFFFFF;" width="21.978" height="16.484"/>
</g>
</svg>