<?xml version="1.0" encoding="iso-8859-1"?>
<!-- Uploaded to: SVG Repo, www.svgrepo.com, Generator: SVG Repo Mixer Tools -->
<svg height="800px" width="800px" version="1.1" id="Layer_1" xmlns="http://www.w3.org/2000/svg" xmlns:xlink="http://www.w3.org/1999/xlink" 
	 viewBox="0 0 451.296 451.296" xml:space="preserve">
<circle style="fill:#45B39C;" cx="225.638" cy="225.648" r="225.638"/>
<path style="opacity:0.1;enable-background:new    ;" d="M339.545,101.446c-1.692-3.056-4.983-5.077-8.744-5.077
	c-5.547,0-10.014,4.466-10.014,10.014v0.282l-88.148,50.444h-69.954l-17.912,6.159v7.992h-16.783c-3.385,0-6.112,2.727-6.112,6.112
	v3.667h-5.312c-3.385,0-6.159,2.774-6.159,6.159v35.4c0,1.128,0.282,2.163,0.846,3.056c0.517,0.893,1.269,1.645,2.21,2.21
	l72.869,72.822l8.979,51.243c0.188,1.081,0.893,1.974,1.786,2.539l88.651,88.682c95.434-26.321,165.546-113.695,165.546-217.498
	c0-4.305-0.148-8.575-0.385-12.821L339.639,101.587L339.545,101.446z"/>
<path style="fill:#2F4859;" d="M231.019,305.093c1.715,0,3.106-1.39,3.106-3.106v-23.935c0-1.715-1.391-3.106-3.106-3.106h-8.636
	l5.297,30.146H231.019z"/>
<path style="fill:#EBF0F3;" d="M195.332,351.919c0.306,1.742,1.819,3.012,3.587,3.012h12.243h25.277h0.866
	c3.878,0,7.022-3.144,7.022-7.022l0,0c0-3.878-3.144-7.022-7.022-7.022c-1.928,0-3.577-1.384-3.911-3.283l-5.713-32.511
	l-5.297-30.146l-3.919-22.3h-40.577L195.332,351.919z"/>
<path style="fill:#64798A;" d="M116.552,181.058c-3.381,0-6.121,2.74-6.121,6.121v35.394c0,3.381,2.74,6.121,6.121,6.121h5.31
	v-47.636H116.552z"/>
<path style="fill:#FCD462;" d="M127.984,171.262c-3.381,0-6.121,2.741-6.121,6.121v3.674v47.636v3.674
	c0,3.381,2.74,6.121,6.121,6.121h16.803v-67.226H127.984z"/>
<polygon style="fill:#D15241;" points="144.786,163.29 144.786,171.262 144.786,238.488 144.786,246.461 162.688,252.647 
	162.688,157.105 "/>
<polygon style="fill:#E56353;" points="162.688,157.105 162.688,252.647 177.887,252.647 218.464,252.647 232.636,252.647 
	232.636,157.105 "/>
<polygon style="fill:#EBF0F3;" points="232.636,157.105 232.636,252.647 320.785,303.106 320.785,106.645 "/>
<path style="fill:#64798A;" d="M330.815,96.365c-5.539,0-10.03,4.491-10.03,10.03v0.249v196.461v0.25
	c0,5.539,4.491,10.03,10.03,10.03c5.54,0,10.03-4.491,10.03-10.03v-196.96C340.845,100.856,336.355,96.365,330.815,96.365z"/>
</svg>