<?xml version="1.0" encoding="iso-8859-1"?>
<!-- Uploaded to: SVG Repo, www.svgrepo.com, Generator: SVG Repo Mixer Tools -->
<svg version="1.1" id="Layer_1" xmlns="http://www.w3.org/2000/svg" xmlns:xlink="http://www.w3.org/1999/xlink" 
	 viewBox="0 0 451.277 451.277" xml:space="preserve">
<circle style="fill:#334D5C;" cx="225.638" cy="225.638" r="225.638"/>
<path style="opacity:0.1;enable-background:new    ;" d="M349.776,177.971c-2.68-2.445-6.206-3.902-10.108-3.902
	c-8.415,0-15.279,6.864-15.279,15.279c0,3.996,1.551,7.522,4.043,10.249h-0.047l0.752,0.799l0.423,0.376l5.077,5.124
	c-0.517,1.269-1.034,2.492-1.598,3.714l-4.748,9.026l-0.141,0.235c-1.081,1.692-2.21,3.385-3.385,4.936l-87.348-87.348
	c-0.47-0.564-1.034-1.128-1.598-1.598c-2.68-2.492-6.253-3.949-10.202-3.949c-8.415,0-15.232,6.864-15.232,15.279
	c0,3.855,1.457,7.428,3.855,10.108l1.269,1.269l6.018,6.018c-2.445,8.838-6.253,20.168-11.8,31.968
	c-20.967,2.163-39.49,8.556-52.936,17.582l-32.955-32.955c-2.774-3.714-7.24-6.112-12.223-6.112
	c-8.415,0-15.279,6.864-15.279,15.279c0,4.889,2.304,9.261,5.877,12.035l0.047,0.047l12.599,12.552l15.232,94.071h-6.206v12.27
	L253.129,449.57c95.494-11.607,172.553-82.818,192.865-175.345l-94.573-94.607L349.776,177.971z"/>
<ellipse style="fill:#E56353;" cx="225.638" cy="248.781" rx="91.704" ry="54.031"/>
<path style="fill:#F6C358;" d="M321.187,308.076h-95.548V146.054c0,0,7.367,46.087,34.371,79.936
	c15.621,19.581,46.948,19.658,62.839,0.268c9.625-11.745,15.472-27.094,18.904-44.998"/>
<g>
	<path style="fill:#FCD462;" d="M130.09,308.076h95.548V146.054c0,0-7.367,46.087-34.371,79.936
		c-15.621,19.581-46.948,19.658-62.84,0.268c-9.625-11.745-15.471-27.094-18.904-44.998"/>
	<rect x="123.853" y="308.07" style="fill:#FCD462;" width="203.535" height="12.268"/>
</g>
<g>
	<circle style="fill:#E56353;" cx="225.638" cy="146.196" r="15.263"/>
	<circle style="fill:#E56353;" cx="339.661" cy="189.348" r="15.263"/>
	<circle style="fill:#E56353;" cx="111.616" cy="189.348" r="15.263"/>
</g>
<ellipse style="fill:#44C4A1;" cx="225.638" cy="258.099" rx="20.874" ry="31.027"/>
</svg>