<?xml version="1.0" encoding="iso-8859-1"?>
<!-- Uploaded to: SVG Repo, www.svgrepo.com, Generator: SVG Repo Mixer Tools -->
<svg height="800px" width="800px" version="1.1" id="Layer_1" xmlns="http://www.w3.org/2000/svg" xmlns:xlink="http://www.w3.org/1999/xlink" 
	 viewBox="0 0 504 504" xml:space="preserve">
<circle style="fill:#90DFAA;" cx="252" cy="252" r="252"/>
<g>
	<polygon style="fill:#324A5E;" points="229.2,175.7 187.9,196.1 219.3,226.4 247.3,200.3 	"/>
	<polyline style="fill:#324A5E;" points="316.1,196.1 274.8,175.7 256.7,200.3 284.7,226.4 	"/>
</g>
<circle style="fill:#2B3B4E;" cx="252" cy="181" r="39.5"/>
<circle style="fill:#FF7058;" cx="252" cy="181" r="16.4"/>
<path style="fill:#2B3B4E;" d="M271.1,230.7c-31.8,46.4,29.7,53.2,29.7,53.2l64.2-96.1C364.9,187.8,322.1,156.1,271.1,230.7z"/>
<circle style="fill:#324A5E;" cx="372.2" cy="262.4" r="74.6"/>
<circle style="fill:#CED5E0;" cx="372.2" cy="262.4" r="46.4"/>
<path style="fill:#2B3B4E;" d="M232.9,230.7c31.8,46.4-29.7,53.2-29.7,53.2L139,187.8C139.1,187.8,181.9,156.1,232.9,230.7z"/>
<circle style="fill:#324A5E;" cx="131.8" cy="262.4" r="74.6"/>
<circle style="fill:#CED5E0;" cx="131.8" cy="262.4" r="46.4"/>
<g>
	
		<ellipse transform="matrix(0.7071 -0.7071 0.7071 0.7071 -68.5245 321.5839)" style="fill:#FFFFFF;" cx="353.924" cy="243.508" rx="14.3" ry="8.2"/>
	
		<ellipse transform="matrix(0.7071 -0.7071 0.7071 0.7071 -141.4011 151.8417)" style="fill:#FFFFFF;" cx="112.589" cy="246.607" rx="14.3" ry="8.2"/>
</g>
</svg>